<svg width="36" height="29" viewBox="0 0 36 29" fill="none" xmlns="http://www.w3.org/2000/svg">
<path d="M12.2899 13.3047L1.98633 10.504C2.84421 6.47978 5.05663 3.67912 8.72292 2.00236C13.0123 0.0446159 18.1054 0.969104 21.5279 4.29545C24.7517 7.43146 25.8985 12.3983 24.255 16.486L14.0237 13.7669C12.9762 17.7187 11.9016 21.5888 10.9353 25.4771C10.6193 26.7641 10.0684 27.2898 8.71389 26.7551L12.2899 13.2956V13.3047ZM12.7595 11.5554L15.008 3.10812C12.8678 2.57336 9.91492 6.3257 9.03898 10.5312L12.7595 11.5554ZM18.3492 13.0328C18.9542 10.2412 19.1439 7.60367 18.3311 4.97522C18.1505 4.38609 17.5726 3.91478 17.1843 3.38002L16.7508 3.57036L14.4933 12.0267L18.3402 13.0328H18.3492ZM23.1353 14.2654C23.4874 11.1203 22.765 8.51003 20.6881 6.06285C20.5887 8.14748 20.7061 10.0055 20.3539 11.7729C20.0469 13.3047 20.5165 13.8666 21.8981 14.0388C22.2322 14.0841 22.5664 14.1567 23.1353 14.2564V14.2654ZM10.3303 3.29845C7.37741 4.3317 5.35463 6.23506 4.18972 9.23512L6.94396 9.96927L10.3303 3.29845Z" fill="#37B052"/>
<path d="M3.53178 26.9271C1.55414 26.909 -0.0442178 25.2412 0.000933621 23.2563C0.0460851 21.2714 1.71669 19.6853 3.69432 19.7578C5.60874 19.8212 7.15292 21.4255 7.14389 23.356C7.14389 25.3409 5.50038 26.9543 3.52275 26.9361L3.53178 26.9271ZM5.37395 23.4013C5.28365 22.2774 4.69668 21.6067 3.61305 21.5795C2.50232 21.5433 1.86117 22.2321 1.82505 23.3198C1.78893 24.4346 2.47523 25.0781 3.54984 25.1144C4.66959 25.1597 5.21141 24.4346 5.37395 23.4013Z" fill="#37B052"/>
<path d="M35.8727 23.7703C34.8386 23.3048 34.0365 23.0623 33.3601 22.6161C32.4517 22.0244 31.6206 21.8983 30.7218 22.5773C29.0113 23.877 27.3105 23.8479 25.6 22.5773C24.7206 21.9177 23.8605 21.9662 22.9714 22.6355C21.3769 23.8479 19.7147 23.8479 18.1105 22.7034C17.1054 21.9856 16.2453 21.9274 15.221 22.684C14.6121 23.1302 13.8197 23.3242 13.0659 23.6443C12.6697 21.5298 15.4046 19.6577 17.6466 20.2979C17.9462 20.3852 18.2844 20.4822 18.5163 20.6762C19.8596 21.7916 21.0676 21.7625 22.5172 20.6859C23.8315 19.7159 25.3874 20.0166 26.6823 20.9769C27.7453 21.7528 28.6537 21.7043 29.7168 20.9478C31.4369 19.7353 34.5197 20.1524 35.6504 21.7431C35.9306 22.1408 35.7857 22.8295 35.8727 23.7606V23.7703Z" fill="#37B052"/>
<path d="M35.5518 28.4549C34.8077 28.1058 34.0153 27.8245 33.3291 27.388C32.4111 26.7963 31.58 26.7284 30.6909 27.3977C29.0384 28.6489 27.3569 28.6489 25.6947 27.4365C24.7476 26.7381 23.8875 26.7478 22.9405 27.4656C21.3459 28.6586 19.6741 28.6392 18.0796 27.4656C17.0745 26.7381 16.1951 26.7575 15.1804 27.5044C14.5812 27.9409 13.7888 28.1155 13.0253 28.4258C12.7064 26.2531 15.4606 24.4296 17.6833 25.1183C18.1859 25.2735 18.6691 25.5354 19.0943 25.8361C20.0317 26.515 20.9304 26.5829 21.8678 25.8652C23.472 24.643 25.1149 24.6527 26.7287 25.807C27.7338 26.5247 28.6132 26.515 29.6375 25.807C31.5123 24.5169 34.0636 24.7982 35.5808 26.4665C35.8997 26.8157 35.8128 27.5335 35.9094 28.0864L35.5615 28.4452L35.5518 28.4549Z" fill="#37B052"/>
</svg>
