<svg width="24" height="24" viewBox="0 0 24 24" fill="none" xmlns="http://www.w3.org/2000/svg">
<mask id="mask0_686_2884" style="mask-type:alpha" maskUnits="userSpaceOnUse" x="0" y="0" width="24" height="24">
<rect width="24" height="24" fill="#D9D9D9"/>
</mask>
<g mask="url(#mask0_686_2884)">
</g>
<path d="M18.1271 4.03906H8.0293C7.91119 4.03906 7.79793 4.08598 7.71441 4.16949C7.6309 4.253 7.58398 4.36627 7.58398 4.48438C7.58398 4.60248 7.6309 4.71575 7.71441 4.79926C7.79793 4.88277 7.91119 4.92969 8.0293 4.92969H18.1271C18.3771 4.92993 18.6168 5.02935 18.7937 5.20614C18.9705 5.38292 19.0699 5.62262 19.0702 5.87264V15.9707C19.0702 16.0888 19.1171 16.2021 19.2006 16.2856C19.2841 16.3691 19.3974 16.4161 19.5155 16.4161C19.6336 16.4161 19.7469 16.3691 19.8304 16.2856C19.9139 16.2021 19.9608 16.0888 19.9608 15.9707V5.87264C19.9603 5.38649 19.7669 4.9204 19.4231 4.57665C19.0794 4.2329 18.6133 4.03957 18.1271 4.03906Z" fill="#159E12"/>
<path d="M18.4418 17.4238C18.357 17.3428 18.2443 17.2977 18.127 17.2977C18.0097 17.2977 17.897 17.3428 17.8121 17.4238C17.7708 17.4651 17.738 17.5142 17.7156 17.5682C17.6932 17.6223 17.6817 17.6802 17.6817 17.7386C17.6817 17.7971 17.6932 17.855 17.7156 17.909C17.738 17.9631 17.7708 18.0122 17.8121 18.0535L18.4404 18.6816H6.26069C6.01071 18.6813 5.77106 18.5818 5.59431 18.4051C5.41756 18.2283 5.31815 17.9886 5.31788 17.7386V5.55894L5.94584 6.18705C6.03068 6.268 6.14343 6.31316 6.26069 6.31316C6.37795 6.31316 6.49071 6.268 6.57554 6.18705C6.6169 6.14571 6.64971 6.09663 6.6721 6.0426C6.69448 5.98858 6.706 5.93068 6.706 5.8722C6.706 5.81372 6.69448 5.75582 6.6721 5.70179C6.64971 5.64777 6.6169 5.59869 6.57554 5.55735L5.18742 4.16908C5.10258 4.08813 4.98983 4.04297 4.87257 4.04297C4.75531 4.04297 4.64255 4.08813 4.55772 4.16908L3.16931 5.55735C3.0859 5.64091 3.03906 5.75414 3.03906 5.8722C3.03906 5.99026 3.0859 6.10349 3.16931 6.18705C3.25414 6.268 3.3669 6.31316 3.48416 6.31316C3.60142 6.31316 3.71417 6.268 3.79901 6.18705L4.42726 5.55894V17.7386C4.42778 18.2248 4.62112 18.6908 4.96483 19.0345C5.30855 19.3783 5.77458 19.5717 6.26069 19.5722H18.4404L17.8121 20.2003C17.7708 20.2417 17.738 20.2908 17.7156 20.3448C17.6932 20.3988 17.6817 20.4567 17.6817 20.5152C17.6817 20.5737 17.6932 20.6316 17.7156 20.6856C17.738 20.7396 17.7708 20.7887 17.8121 20.83C17.8535 20.8714 17.9026 20.9042 17.9566 20.9266C18.0106 20.9489 18.0685 20.9604 18.127 20.9604C18.1855 20.9604 18.2434 20.9489 18.2974 20.9266C18.3514 20.9042 18.4005 20.8714 18.4418 20.83L19.8303 19.4418C19.8716 19.4004 19.9044 19.3513 19.9268 19.2973C19.9492 19.2433 19.9607 19.1854 19.9607 19.1269C19.9607 19.0684 19.9492 19.0105 19.9268 18.9565C19.9044 18.9025 19.8716 18.8534 19.8303 18.8121L18.4418 17.4238Z" fill="#159E12"/>
<path d="M13.5054 15.5177C13.6235 15.5176 13.7366 15.4706 13.8201 15.3871C13.9036 15.3036 13.9506 15.1904 13.9507 15.0724V10.7778C13.9515 10.4338 13.8479 10.0975 13.6536 9.81358C13.4592 9.52963 13.1833 9.31136 12.8622 9.1876C12.5412 9.06385 12.1901 9.04044 11.8555 9.12048C11.5208 9.20052 11.2184 9.38023 10.988 9.63586C10.8289 9.45974 10.6348 9.31879 10.4181 9.22201C10.2014 9.12524 9.96685 9.07478 9.72951 9.07386C9.44431 9.07378 9.16391 9.14727 8.91542 9.28724C8.90986 9.17115 8.85913 9.06184 8.77406 8.98265C8.68899 8.90345 8.57634 8.86066 8.46015 8.86341C8.34396 8.86615 8.23345 8.91421 8.15222 8.99733C8.07098 9.08045 8.02547 9.19203 8.02539 9.30825V15.0724C8.02539 15.1905 8.07231 15.3038 8.15582 15.3873C8.23933 15.4708 8.3526 15.5177 8.4707 15.5177C8.58881 15.5177 8.70207 15.4708 8.78559 15.3873C8.8691 15.3038 8.91602 15.1905 8.91602 15.0724V10.7778C8.91643 10.5624 9.0023 10.3559 9.15479 10.2037C9.30728 10.0515 9.51393 9.96603 9.72938 9.96603C9.94483 9.96603 10.1515 10.0515 10.304 10.2037C10.4565 10.3559 10.5423 10.5624 10.5427 10.7778V15.0724C10.5427 15.1905 10.5897 15.3038 10.6732 15.3873C10.7567 15.4708 10.8699 15.5177 10.9881 15.5177C11.1062 15.5177 11.2194 15.4708 11.3029 15.3873C11.3864 15.3038 11.4334 15.1905 11.4334 15.0724V10.7778C11.4334 10.5621 11.5191 10.3552 11.6716 10.2027C11.8241 10.0502 12.031 9.96448 12.2467 9.96448C12.4624 9.96448 12.6693 10.0502 12.8219 10.2027C12.9744 10.3552 13.0601 10.5621 13.0601 10.7778V15.0724C13.0602 15.1904 13.1072 15.3036 13.1907 15.3871C13.2741 15.4706 13.3873 15.5176 13.5054 15.5177Z" fill="#159E12"/>
<path d="M16.9774 9.32796L17.0481 9.23157C17.1947 9.01574 17.2732 8.76088 17.2734 8.49996C17.2734 8.15084 17.1347 7.81602 16.8878 7.56915C16.6409 7.32228 16.3061 7.18359 15.957 7.18359C15.6079 7.18359 15.273 7.32228 15.0262 7.56915C14.7793 7.81602 14.6406 8.15084 14.6406 8.49996C14.6406 8.61807 14.6875 8.73133 14.7711 8.81484C14.8546 8.89836 14.9678 8.94527 15.0859 8.94527C15.204 8.94527 15.3173 8.89836 15.4008 8.81484C15.4843 8.73133 15.5312 8.61807 15.5312 8.49996C15.5316 8.43528 15.5467 8.37153 15.5754 8.31356C15.6041 8.25559 15.6456 8.20492 15.6968 8.16539C15.748 8.12587 15.8075 8.09852 15.8709 8.08544C15.9342 8.07236 15.9997 8.07389 16.0624 8.0899C16.1251 8.10592 16.1833 8.136 16.2326 8.17787C16.2819 8.21973 16.321 8.27228 16.3469 8.33152C16.3729 8.39077 16.385 8.45515 16.3824 8.51978C16.3797 8.5844 16.3624 8.64758 16.3317 8.70451L14.9436 10.1947C14.8688 10.2745 14.819 10.3744 14.8002 10.4821C14.7815 10.5898 14.7946 10.7007 14.8381 10.801C14.8815 10.9014 14.9533 10.9869 15.0447 11.0469C15.1361 11.107 15.243 11.139 15.3524 11.1391H16.8005C16.9186 11.1391 17.0319 11.0922 17.1154 11.0087C17.1989 10.9251 17.2458 10.8119 17.2458 10.6938C17.2458 10.5757 17.1989 10.4624 17.1154 10.3789C17.0319 10.2954 16.9186 10.2485 16.8005 10.2485H16.1157L16.9449 9.36682C16.9562 9.35449 16.9672 9.34144 16.9774 9.32796Z" fill="#159E12"/>
</svg>
