<svg width="26" height="28" viewBox="0 0 26 28" fill="none" xmlns="http://www.w3.org/2000/svg">
<path d="M6.00195 5.00342H8.00195V7.01143H6.00195V5.00342Z" fill="#37B052"/>
<path d="M6.00195 9.01807H8.00195V11.0261H6.00195V9.01807Z" fill="#37B052"/>
<path d="M6.00195 13.0332H8.00195V15.0412H6.00195V13.0332Z" fill="#37B052"/>
<path d="M6.00195 17.0479H8.00195V19.0559H6.00195V17.0479Z" fill="#37B052"/>
<path d="M10 5.00342H12V7.01143H10V5.00342Z" fill="#37B052"/>
<path d="M18 13.0332H20V15.0412H18V13.0332Z" fill="#37B052"/>
<path d="M18 9.01807H20V11.0261H18V9.01807Z" fill="#37B052"/>
<path d="M10 9.01807H12V11.0261H10V9.01807Z" fill="#37B052"/>
<path d="M18 17.0479H20V19.0559H18V17.0479Z" fill="#37B052"/>
<path d="M10 13.0332H12V15.0412H10V13.0332Z" fill="#37B052"/>
<path d="M18 21.062H20V23.07H18V21.062Z" fill="#37B052"/>
<path d="M10 17.0479H12V19.0559H10V17.0479Z" fill="#37B052"/>
<path d="M25 25.0773H24V6.00722C24 5.74102 23.8946 5.48573 23.7071 5.2975C23.5196 5.10928 23.2652 5.00353 23 5.00353H16V1.99246C16 1.72626 15.8946 1.47097 15.7071 1.28274C15.5196 1.09452 15.2652 0.98877 15 0.98877H3C2.73478 0.98877 2.48043 1.09452 2.29289 1.28274C2.10536 1.47097 2 1.72626 2 1.99246V25.0773H1C0.734784 25.0773 0.48043 25.1831 0.292893 25.3713C0.105357 25.5595 0 25.8148 0 26.081C0 26.3472 0.105357 26.6025 0.292893 26.7907C0.48043 26.979 0.734784 27.0847 1 27.0847H25C25.2652 27.0847 25.5196 26.979 25.7071 26.7907C25.8946 26.6025 26 26.3472 26 26.081C26 25.8148 25.8946 25.5595 25.7071 25.3713C25.5196 25.1831 25.2652 25.0773 25 25.0773ZM4 2.99615H14V22.0663C14 22.3325 14.1054 22.5877 14.2929 22.776C14.4804 22.9642 14.7348 23.07 15 23.07C15.2652 23.07 15.5196 22.9642 15.7071 22.776C15.8946 22.5877 16 22.3325 16 22.0663V7.01091H22V25.0773H12V22.0663C12 21.8001 11.8946 21.5448 11.7071 21.3565C11.5196 21.1683 11.2652 21.0626 11 21.0626H7C6.73478 21.0626 6.48043 21.1683 6.29289 21.3565C6.10536 21.5448 6 21.8001 6 22.0663V25.0773H4V2.99615ZM10 25.0773H8V23.07H10V25.0773Z" fill="#37B052"/>
</svg>
