<svg width="20" height="19" viewBox="0 0 20 19" fill="none" xmlns="http://www.w3.org/2000/svg">
<path d="M10 13.1652C12.2091 13.1652 14 11.4811 14 9.40363C14 7.32619 12.2091 5.64209 10 5.64209C7.79086 5.64209 6 7.32619 6 9.40363C6 11.4811 7.79086 13.1652 10 13.1652Z" fill="white"/>
<path d="M11 1.94566V0H9V1.94566C7.2403 2.15694 5.60497 2.91159 4.35057 4.09121C3.09617 5.27083 2.29368 6.80867 2.069 8.46347H0V10.3442H2.069C2.29335 11.9992 3.09574 13.5372 4.3502 14.7168C5.60466 15.8965 7.24017 16.6511 9 16.862V18.8077H11V16.862C12.7599 16.6512 14.3955 15.8967 15.65 14.717C16.9045 13.5373 17.7068 11.9992 17.931 10.3442H20V8.46347H17.931C17.7066 6.80855 16.9043 5.27053 15.6498 4.09086C14.3953 2.91118 12.7598 2.15663 11 1.94566ZM10 15.0462C6.691 15.0462 4 12.5156 4 9.40385C4 6.29212 6.691 3.76154 10 3.76154C13.309 3.76154 16 6.29212 16 9.40385C16 12.5156 13.309 15.0462 10 15.0462Z" fill="white"/>
</svg>
