<svg width="60" height="60" viewBox="0 0 60 60" fill="none" xmlns="http://www.w3.org/2000/svg">
<path d="M59.3305 43.6896L57.5308 42.0896V35.0896C57.5308 33.8896 57.0975 32.8563 56.231 31.9896C55.3645 31.123 54.3646 30.6896 53.2315 30.6896C52.0983 30.6896 51.1318 31.023 50.332 31.6896C49.5321 32.3563 48.9989 33.223 48.7322 34.2896L47.1325 32.8896C46.3326 32.0896 45.3328 31.6896 44.133 31.6896C42.9332 31.6896 41.8667 32.0896 40.9335 32.8896L28.7356 43.6896C28.469 43.9563 28.3356 44.2896 28.3356 44.6896C28.3356 45.0896 28.4356 45.423 28.6356 45.6896C28.8356 45.9563 29.1355 46.0896 29.5354 46.0896C29.9354 46.0896 30.2687 46.023 30.5353 45.8896V55.6896C30.5353 56.8896 30.9352 57.8896 31.7351 58.6896C32.5349 59.4896 33.4681 59.8896 34.5346 59.8896H53.5314C54.7312 59.8896 55.6977 59.4896 56.431 58.6896C57.1642 57.8896 57.5308 56.8896 57.5308 55.6896V45.8896C57.9307 46.023 58.2973 46.0896 58.6306 46.0896C58.9639 46.0896 59.2638 45.923 59.5304 45.5896C59.7971 45.2563 59.897 44.923 59.8304 44.5896C59.7637 44.2563 59.5971 43.9563 59.3305 43.6896ZM46.5326 57.0896H41.9334V53.6896C41.9334 53.1563 42.1333 52.6896 42.5333 52.2896C42.9332 51.8896 43.3998 51.6896 43.933 51.6896H44.5329C45.0662 51.6896 45.5328 51.8896 45.9327 52.2896C46.3326 52.6896 46.5326 53.1563 46.5326 53.6896V57.0896ZM54.7312 55.6896C54.7312 56.0896 54.6313 56.423 54.4313 56.6896C54.2313 56.9563 53.9314 57.0896 53.5314 57.0896H49.3321V53.6896C49.3321 52.3563 48.8656 51.223 47.9324 50.2896C46.9992 49.3563 45.8661 48.8896 44.5329 48.8896H43.933C42.5999 48.8896 41.4668 49.3563 40.5336 50.2896C39.6004 51.223 39.1338 52.3563 39.1338 53.6896V57.0896H34.5346C34.268 57.0896 34.0014 56.9563 33.7347 56.6896C33.4681 56.423 33.3348 56.0896 33.3348 55.6896V43.2896L42.7332 35.0896C43.1332 34.6896 43.5664 34.4896 44.033 34.4896C44.4996 34.4896 44.9329 34.6896 45.3328 35.0896L54.7312 43.2896V55.6896ZM54.7312 35.0896V39.6896L51.5318 36.6896V35.0896C51.5318 34.6896 51.6651 34.323 51.9317 33.9896C52.1983 33.6563 52.5649 33.4563 53.0315 33.3896C53.4981 33.323 53.898 33.4563 54.2313 33.7896C54.5646 34.123 54.7312 34.5563 54.7312 35.0896ZM44.133 37.8896C42.9332 37.8896 41.9334 38.323 41.1335 39.1896C40.3336 40.0563 39.9337 41.0563 39.9337 42.1896C39.9337 43.323 40.3336 44.2896 41.1335 45.0896C41.9334 45.8896 42.8999 46.2896 44.033 46.2896C45.1662 46.2896 46.166 45.8896 47.0325 45.0896C47.899 44.2896 48.3323 43.323 48.3323 42.1896C48.3323 41.0563 47.899 40.0563 47.0325 39.1896C46.166 38.323 45.1995 37.8896 44.133 37.8896ZM45.3328 42.0896C45.3328 42.4896 45.2328 42.823 45.0329 43.0896C44.8329 43.3563 44.5329 43.4896 44.133 43.4896C43.7331 43.4896 43.3998 43.3563 43.1332 43.0896C42.8666 42.823 42.7332 42.4896 42.7332 42.0896C42.7332 41.6896 42.8666 41.3563 43.1332 41.0896C43.3998 40.823 43.7331 40.6896 44.133 40.6896C44.5329 40.6896 44.8329 40.823 45.0329 41.0896C45.2328 41.3563 45.3328 41.6896 45.3328 42.0896ZM25.936 56.8896H8.139C6.9392 56.8896 5.87271 56.4563 4.93953 55.5896C4.00636 54.723 3.53977 53.6896 3.53977 52.4896V8.08965C3.53977 6.88965 4.00636 5.82298 4.93953 4.88965C5.87271 3.95631 6.9392 3.48965 8.139 3.48965H48.7322C50.0654 3.48965 51.1652 3.95631 52.0317 4.88965C52.8982 5.82298 53.3315 6.88965 53.3315 8.08965V25.8896C53.3315 26.2896 53.4648 26.623 53.7314 26.8896C53.998 27.1563 54.3313 27.2896 54.7312 27.2896C55.1312 27.2896 55.4645 27.1563 55.7311 26.8896C55.9977 26.623 56.131 26.2896 56.131 25.8896V8.08965C56.131 6.08965 55.3978 4.35632 53.9314 2.88965C52.465 1.42298 50.7319 0.689648 48.7322 0.689648H8.139C6.13933 0.689648 4.40629 1.42298 2.93987 2.88965C1.47345 4.35632 0.740234 6.08965 0.740234 8.08965V52.4896C0.740234 54.4896 1.47345 56.223 2.93987 57.6896C4.40629 59.1563 6.13933 59.8896 8.139 59.8896H25.936C26.336 59.8896 26.7026 59.723 27.0359 59.3896C27.3691 59.0563 27.5358 58.723 27.5358 58.3896C27.5358 58.0563 27.3691 57.723 27.0359 57.3896C26.7026 57.0563 26.336 56.8896 25.936 56.8896ZM43.3331 14.8896C43.3331 14.4896 43.1998 14.1563 42.9332 13.8896C42.6666 13.623 42.3333 13.4896 41.9334 13.4896H14.138C13.7381 13.4896 13.4048 13.623 13.1382 13.8896C12.8715 14.1563 12.7382 14.4896 12.7382 14.8896C12.7382 15.2896 12.8715 15.623 13.1382 15.8896C13.4048 16.1563 13.7381 16.2896 14.138 16.2896H41.9334C42.3333 16.2896 42.6666 16.1563 42.9332 15.8896C43.1998 15.623 43.3331 15.2896 43.3331 14.8896ZM36.5343 25.6896C36.5343 25.423 36.401 25.123 36.1343 24.7896C35.8677 24.4563 35.5344 24.2896 35.1345 24.2896H14.138C13.7381 24.2896 13.4048 24.4563 13.1382 24.7896C12.8715 25.123 12.7382 25.4563 12.7382 25.7896C12.7382 26.123 12.8715 26.4563 13.1382 26.7896C13.4048 27.123 13.7381 27.2896 14.138 27.2896H35.1345C35.5344 27.2896 35.8677 27.123 36.1343 26.7896C36.401 26.4563 36.5343 26.0896 36.5343 25.6896ZM14.138 35.2896C13.7381 35.2896 13.4048 35.423 13.1382 35.6896C12.8715 35.9563 12.7382 36.2896 12.7382 36.6896C12.7382 37.0896 12.8715 37.423 13.1382 37.6896C13.4048 37.9563 13.7381 38.0896 14.138 38.0896H22.7366C23.0032 38.0896 23.3031 37.9563 23.6364 37.6896C23.9697 37.423 24.1363 37.0896 24.1363 36.6896C24.1363 36.2896 23.9697 35.9563 23.6364 35.6896C23.3031 35.423 23.0032 35.2896 22.7366 35.2896H14.138Z" fill="#1A1A1A"/>
</svg>
