<svg width="52" height="54" viewBox="0 0 52 54" fill="none" xmlns="http://www.w3.org/2000/svg">
<path d="M26.0103 53.4004C25.2103 53.4004 24.477 53.2004 23.8103 52.8004L15.0103 47.6004C11.277 45.4671 8.24365 42.5337 5.91031 38.8004C3.57698 35.0671 2.21031 31.0671 1.81031 26.8004L0.610313 11.8004C0.476979 10.7337 0.676979 9.76706 1.21031 8.90039C1.74365 8.03372 2.47698 7.46706 3.41031 7.20039C4.87698 6.80039 6.21031 6.20039 7.41031 5.40039C8.87698 4.46706 10.2103 3.26706 11.4103 1.80039C12.2103 0.733723 13.3436 0.20039 14.8103 0.20039H37.2103C38.677 0.20039 39.8103 0.733723 40.6103 1.80039C41.8103 3.26706 43.1436 4.46706 44.6103 5.40039C45.8103 6.20039 47.1436 6.80039 48.6103 7.20039C49.5436 7.46706 50.277 8.03372 50.8103 8.90039C51.3436 9.76706 51.6103 10.6671 51.6103 11.6004L50.2103 26.6004C49.9436 31.0004 48.6436 35.0337 46.3103 38.7004C43.977 42.3671 40.9436 45.3337 37.2103 47.6004L28.4103 52.8004C27.6103 53.2004 26.8103 53.4004 26.0103 53.4004ZM14.8103 3.80039C14.5436 3.80039 14.3436 3.86706 14.2103 4.00039C12.877 5.73372 11.3436 7.26706 9.61031 8.60039C8.14365 9.53372 6.54365 10.2004 4.81031 10.6004C4.41031 10.7337 4.21031 11.0004 4.21031 11.4004L5.61031 26.4004C5.87698 30.1337 7.01031 33.6004 9.01031 36.8004C11.0103 40.0004 13.6103 42.5337 16.8103 44.4004L25.6103 49.6004C25.877 49.7337 26.1436 49.7337 26.4103 49.6004L35.2103 44.4004C38.4103 42.5337 41.0103 40.0337 43.0103 36.9004C45.0103 33.7671 46.1436 30.2671 46.4103 26.4004L47.8103 11.4004C47.8103 11.1337 47.6103 10.9337 47.2103 10.8004C45.477 10.4004 43.877 9.66706 42.4103 8.60039C40.677 7.40039 39.1436 5.93372 37.8103 4.20039C37.677 4.06705 37.477 4.00039 37.2103 4.00039L14.8103 3.80039ZM24.2103 32.6004C23.677 32.6004 23.2103 32.4004 22.8103 32.0004L17.8103 27.0004C17.5436 26.7337 17.4436 26.3671 17.5103 25.9004C17.577 25.4337 17.777 25.0337 18.1103 24.7004C18.4436 24.3671 18.8103 24.1671 19.2103 24.1004C19.6103 24.0337 20.0103 24.1337 20.4103 24.4004L24.2103 28.2004L32.8103 19.4004C33.2103 19.2671 33.6103 19.2004 34.0103 19.2004C34.4103 19.2004 34.777 19.3671 35.1103 19.7004C35.4436 20.0337 35.6436 20.4004 35.7103 20.8004C35.777 21.2004 35.677 21.6004 35.4103 22.0004L25.4103 32.0004C25.1436 32.4004 24.7436 32.6004 24.2103 32.6004Z" fill="#1A1A1A"/>
</svg>
