<svg width="57" height="57" viewBox="0 0 57 57" fill="none" xmlns="http://www.w3.org/2000/svg">
<path d="M16.46 41.4902C16.46 40.9569 16.66 40.4902 17.06 40.0902C17.46 39.6902 17.86 39.4902 18.26 39.4902H39.06C39.46 39.4902 39.86 39.6902 40.26 40.0902C40.66 40.4902 40.86 40.9569 40.86 41.4902C40.86 42.0236 40.66 42.4569 40.26 42.7902C39.86 43.1236 39.46 43.2902 39.06 43.2902H18.26C17.86 43.2902 17.46 43.1236 17.06 42.7902C16.66 42.4569 16.46 42.0236 16.46 41.4902ZM36.66 2.89023C34.3933 1.02357 31.7266 0.0902328 28.66 0.0902328C25.5933 0.0902328 22.9266 1.02357 20.66 2.89023L5.65996 14.4902C4.05996 15.8236 2.79329 17.3569 1.85996 19.0902C0.926628 20.8236 0.459961 22.6902 0.459961 24.6902V43.4902C0.459961 45.7569 1.05996 47.8902 2.25996 49.8902C3.45996 51.8902 5.05996 53.4902 7.05996 54.6902C9.05996 55.8902 11.26 56.4902 13.66 56.4902H43.66C46.06 56.4902 48.26 55.8902 50.26 54.6902C52.26 53.4902 53.86 51.8902 55.06 49.8902C56.26 47.8902 56.86 45.7569 56.86 43.4902V24.6902C56.86 22.6902 56.3933 20.8236 55.46 19.0902C54.5266 17.3569 53.26 15.8236 51.66 14.4902L36.66 2.89023ZM22.86 5.89023C24.5933 4.5569 26.5266 3.89023 28.66 3.89023C30.7933 3.89023 32.7266 4.5569 34.46 5.89023L49.46 17.4902C50.5266 18.4236 51.3933 19.5236 52.06 20.7902C52.7266 22.0569 53.06 23.3569 53.06 24.6902V43.4902C53.06 46.0236 52.1266 48.1902 50.26 49.9902C48.3933 51.7902 46.1933 52.6902 43.66 52.6902H13.66C11.1266 52.6902 8.92663 51.7902 7.05996 49.9902C5.19329 48.1902 4.25996 46.0236 4.25996 43.4902V24.6902C4.25996 23.3569 4.59329 22.0569 5.25996 20.7902C5.92663 19.5236 6.79329 18.4236 7.85996 17.4902L22.86 5.89023Z" fill="#1A1A1A"/>
</svg>
