<svg width="33" height="35" viewBox="0 0 33 35" fill="none" xmlns="http://www.w3.org/2000/svg">
<path opacity="0.8" d="M17.7057 34.4505C25.7611 34.4505 32.2913 27.9203 32.2913 19.8649C32.2913 11.8095 25.7611 5.2793 17.7057 5.2793C9.6503 5.2793 3.12012 11.8095 3.12012 19.8649C3.12012 27.9203 9.6503 34.4505 17.7057 34.4505Z" fill="url(#paint0_radial_1171_3139)"/>
<path d="M8.22795 24.2848L2.77677 18.8336C-0.268036 15.7888 -0.268036 10.7796 2.77677 7.73478L8.22795 2.2836C11.2727 -0.761201 16.2819 -0.761201 19.3267 2.2836L24.7779 7.73478C27.8227 10.7796 27.8227 15.7888 24.7779 18.8336L19.3267 24.2848C16.2819 27.3296 11.3219 27.3296 8.22795 24.2848Z" fill="url(#paint1_linear_1171_3139)"/>
<path fill-rule="evenodd" clip-rule="evenodd" d="M16.2344 11.4679C17.0693 12.0572 18.1497 12.4501 19.2301 12.4501V10.2892C19.0337 10.2892 18.7882 10.2892 18.5917 10.2401V11.959C17.4622 11.959 16.4309 11.6152 15.596 10.9768V15.3966C15.596 17.6066 13.8281 19.3745 11.6181 19.3745C10.7833 19.3745 10.0466 19.129 9.4082 18.687C10.1448 19.4236 11.127 19.8656 12.2566 19.8656C14.4665 19.8656 16.2344 18.0977 16.2344 15.8877V11.4679ZM17.0202 9.25792C16.5782 8.76682 16.2836 8.17751 16.2344 7.48997V7.19531H15.6451C15.7925 8.07929 16.3327 8.81593 17.0202 9.25792ZM10.7833 16.9681C10.5377 16.6735 10.3904 16.2806 10.3904 15.8386C10.3904 14.8073 11.2253 14.0216 12.2075 14.0216C12.4039 14.0216 12.6003 14.0707 12.7477 14.1198V11.9098C12.5512 11.8607 12.3057 11.8607 12.1092 11.8607V13.5796C11.9128 13.5305 11.7655 13.4814 11.569 13.4814C10.5377 13.4814 9.75198 14.3162 9.75198 15.2984C9.80109 16.0351 10.194 16.6735 10.7833 16.9681Z" fill="#FF1753"/>
<path fill-rule="evenodd" clip-rule="evenodd" d="M15.6451 10.9277C16.4799 11.517 17.5603 11.9098 18.6407 11.9098V10.191C18.0023 10.0437 17.4621 9.74902 17.0201 9.25792C16.2835 8.81593 15.7924 8.07929 15.6451 7.19531H14.0735V15.8386C14.0735 16.8699 13.2387 17.6557 12.2565 17.6557C11.6672 17.6557 11.127 17.361 10.7832 16.919C10.1939 16.6244 9.80099 15.9859 9.80099 15.2984C9.80099 14.2671 10.6359 13.4814 11.6181 13.4814C11.8145 13.4814 12.0109 13.5305 12.1583 13.5796V11.8607C9.99744 11.9098 8.22949 13.6778 8.22949 15.8386C8.22949 16.919 8.67147 17.9012 9.35901 18.6379C9.99744 19.0799 10.7832 19.3254 11.5689 19.3254C13.7789 19.3254 15.5468 17.5575 15.5468 15.3475V10.9277H15.6451Z" fill="white"/>
<path fill-rule="evenodd" clip-rule="evenodd" d="M18.6402 10.1909V9.7489C18.0509 9.7489 17.5107 9.60158 17.0196 9.30692C17.4616 9.7489 18.0018 10.0436 18.6402 10.1909ZM15.6445 7.24431C15.6445 7.14609 15.5954 7.09698 15.5954 6.99876V6.7041H13.4346V15.3474C13.4346 16.3787 12.5997 17.1645 11.6175 17.1645C11.3229 17.1645 11.0282 17.1154 10.7827 16.968C11.1264 17.41 11.6666 17.7047 12.256 17.7047C13.2873 17.7047 14.073 16.8698 14.073 15.8876V7.24431H15.6445ZM12.1577 11.8606V11.3695C11.9613 11.3204 11.814 11.3204 11.6175 11.3204C9.4076 11.3204 7.63965 13.0884 7.63965 15.2983C7.63965 16.6734 8.32719 17.9011 9.4076 18.6378C8.72006 17.9011 8.27808 16.9189 8.27808 15.8385C8.27808 13.6777 9.99692 11.9097 12.1577 11.8606Z" fill="#00C9D0"/>
<defs>
<radialGradient id="paint0_radial_1171_3139" cx="0" cy="0" r="1" gradientUnits="userSpaceOnUse" gradientTransform="translate(17.6837 19.8673) scale(14.5779)">
<stop stop-color="#000057"/>
<stop offset="0.2482" stop-color="#4C4C89" stop-opacity="0.7518"/>
<stop offset="0.5193" stop-color="#9898BB" stop-opacity="0.4807"/>
<stop offset="0.744" stop-color="#D0D0E0" stop-opacity="0.256"/>
<stop offset="0.9103" stop-color="#F2F2F6" stop-opacity="0.0897143"/>
<stop offset="1" stop-color="white" stop-opacity="0"/>
</radialGradient>
<linearGradient id="paint1_linear_1171_3139" x1="13.8061" y1="-0.0146993" x2="13.8061" y2="26.5786" gradientUnits="userSpaceOnUse">
<stop stop-color="#23004A"/>
<stop offset="0.9565" stop-color="#020003"/>
<stop offset="1"/>
</linearGradient>
</defs>
</svg>
