<svg width="32" height="35" viewBox="0 0 32 35" fill="none" xmlns="http://www.w3.org/2000/svg">
<path opacity="0.8" d="M17.3522 34.3528C25.4076 34.3528 31.9378 27.8226 31.9378 19.7672C31.9378 11.7118 25.4076 5.18164 17.3522 5.18164C9.29678 5.18164 2.7666 11.7118 2.7666 19.7672C2.7666 27.8226 9.29678 34.3528 17.3522 34.3528Z" fill="url(#paint0_radial_1171_3114)"/>
<path d="M7.87443 24.776L2.42325 19.3248C-0.621552 16.28 -0.621552 11.2708 2.42325 8.22599L7.87443 2.77481C10.9192 -0.26999 15.9284 -0.26999 18.9732 2.77481L24.4244 8.22599C27.4692 11.2708 27.4692 16.28 24.4244 19.3248L18.9732 24.776C15.9284 27.8699 10.9192 27.8699 7.87443 24.776Z" fill="url(#paint1_linear_1171_3114)"/>
<path d="M7.38477 19.7668L8.26874 16.5256C7.77764 15.6416 7.5321 14.6594 7.5321 13.6281C7.5321 10.3378 10.2331 7.63672 13.5235 7.63672C16.8138 7.63672 19.5149 10.3378 19.5149 13.6281C19.5149 16.9185 16.8138 19.6195 13.5235 19.6195C12.5413 19.6195 11.5591 19.3739 10.6751 18.8828L7.38477 19.7668ZM10.8224 17.7042L11.0189 17.8024C11.7555 18.2444 12.6395 18.49 13.4744 18.49C16.1263 18.49 18.3362 16.3291 18.3362 13.6281C18.3362 10.9762 16.1754 8.76624 13.4744 8.76624C10.8224 8.76624 8.61251 10.9271 8.61251 13.6281C8.61251 14.5121 8.85805 15.3961 9.30004 16.1327L9.44737 16.3291L8.95627 18.1462L10.8224 17.7042Z" fill="white"/>
<path fill-rule="evenodd" clip-rule="evenodd" d="M15.6833 14.5111C15.4377 14.3638 15.094 14.2165 14.8484 14.3147C14.6029 14.4129 14.5047 14.7567 14.3573 14.9531C14.2591 15.0513 14.21 15.0513 14.0627 15.0022C13.2278 14.6585 12.5894 14.1182 12.1474 13.3325C12.0492 13.2343 12.0983 13.136 12.1965 12.9887C12.3438 12.8414 12.4912 12.645 12.5403 12.3994C12.5894 12.203 12.4912 11.9083 12.3929 11.7119C12.2947 11.4663 12.1474 11.1226 11.9018 10.9752C11.6563 10.8279 11.3616 10.9261 11.1652 11.0734C10.8214 11.3681 10.625 11.8101 10.625 12.2521C10.625 12.3994 10.625 12.4976 10.6741 12.645C10.7232 12.9396 10.8705 13.2343 11.0179 13.4798C11.1161 13.6763 11.2634 13.8727 11.4108 14.0691C11.8527 14.6584 12.3929 15.1987 13.0314 15.5915C13.3751 15.788 13.7189 15.9844 14.0627 16.0826C14.4556 16.23 14.7993 16.3773 15.2413 16.2791C15.6833 16.1808 16.1253 15.9353 16.3217 15.4933C16.3708 15.346 16.4199 15.1987 16.3708 15.1004C16.3217 14.8058 15.9288 14.6585 15.6833 14.5111Z" fill="white"/>
<defs>
<radialGradient id="paint0_radial_1171_3114" cx="0" cy="0" r="1" gradientUnits="userSpaceOnUse" gradientTransform="translate(17.344 19.7482) scale(14.5779)">
<stop stop-color="#000057"/>
<stop offset="0.2482" stop-color="#4C4C89" stop-opacity="0.7518"/>
<stop offset="0.5193" stop-color="#9898BB" stop-opacity="0.4807"/>
<stop offset="0.744" stop-color="#D0D0E0" stop-opacity="0.256"/>
<stop offset="0.9103" stop-color="#F2F2F6" stop-opacity="0.0897143"/>
<stop offset="1" stop-color="white" stop-opacity="0"/>
</radialGradient>
<linearGradient id="paint1_linear_1171_3114" x1="13.4283" y1="0.488544" x2="13.4283" y2="27.0818" gradientUnits="userSpaceOnUse">
<stop stop-color="#00FB73"/>
<stop offset="1" stop-color="#00B25B"/>
</linearGradient>
</defs>
</svg>
