<svg width="33" height="35" viewBox="0 0 33 35" fill="none" xmlns="http://www.w3.org/2000/svg">
<path opacity="0.8" d="M18.111 34.4505C26.1664 34.4505 32.6966 27.9203 32.6966 19.8649C32.6966 11.8095 26.1664 5.2793 18.111 5.2793C10.0556 5.2793 3.52539 11.8095 3.52539 19.8649C3.52539 27.9203 10.0556 34.4505 18.111 34.4505Z" fill="url(#paint0_radial_1171_3146)"/>
<path d="M8.58342 24.2848L3.13223 18.8336C0.0874322 15.7888 0.0874322 10.7796 3.13223 7.73478L8.58342 2.2836C11.6282 -0.761201 16.6374 -0.761201 19.6822 2.2836L25.1334 7.73478C28.1782 10.7796 28.1782 15.7888 25.1334 18.8336L19.7313 24.2848C16.6374 27.3296 11.6773 27.3296 8.58342 24.2848Z" fill="url(#paint1_linear_1171_3146)"/>
<path d="M15.1647 12.4488L19.0443 7.93066H18.1112L14.7227 11.8594L12.0216 7.93066H8.92773L13.0038 13.8729L8.92773 18.5875H9.86082L13.3967 14.4623L16.2451 18.5875H19.339L15.1647 12.4488ZM13.8878 13.9221L13.4949 13.3327L10.2046 8.6182H11.6288L14.2807 12.3996L14.6736 12.989L18.1112 17.8999H16.6871L13.8878 13.9221Z" fill="white"/>
<defs>
<radialGradient id="paint0_radial_1171_3146" cx="0" cy="0" r="1" gradientUnits="userSpaceOnUse" gradientTransform="translate(18.1166 19.8673) scale(14.578)">
<stop stop-color="#000057"/>
<stop offset="0.2482" stop-color="#4C4C89" stop-opacity="0.7518"/>
<stop offset="0.5193" stop-color="#9898BB" stop-opacity="0.4807"/>
<stop offset="0.744" stop-color="#D0D0E0" stop-opacity="0.256"/>
<stop offset="0.9103" stop-color="#F2F2F6" stop-opacity="0.0897143"/>
<stop offset="1" stop-color="white" stop-opacity="0"/>
</radialGradient>
<linearGradient id="paint1_linear_1171_3146" x1="14.1621" y1="-0.0146768" x2="14.1621" y2="26.5786" gradientUnits="userSpaceOnUse">
<stop stop-color="#23004A"/>
<stop offset="0.9565" stop-color="#020003"/>
<stop offset="1"/>
</linearGradient>
</defs>
</svg>
