<svg width="301" height="301" viewBox="0 0 301 301" fill="none" xmlns="http://www.w3.org/2000/svg">
<path d="M74.7369 262.063C74.7369 262.063 106.131 278.383 142.01 261.178C177.89 243.973 189.568 210.61 208.158 185.579C217.911 172.461 233.864 165.153 246.036 154.124C284.949 118.853 270.899 59.8871 235.308 43.7054C204.48 29.6968 168.872 34.7175 124.751 58.4303C80.6305 82.1431 48.8389 97.452 25.6739 144.709C2.50899 191.966 35.7033 239.193 74.7369 262.063Z" fill="#92E3A9"/>
<path opacity="0.8" d="M74.7369 262.063C74.7369 262.063 106.131 278.383 142.01 261.178C177.89 243.973 189.568 210.61 208.158 185.579C217.911 172.461 233.864 165.153 246.036 154.124C284.949 118.853 270.899 59.8871 235.308 43.7054C204.48 29.6968 168.872 34.7175 124.751 58.4303C80.6305 82.1431 48.8389 97.452 25.6739 144.709C2.50899 191.966 35.7033 239.193 74.7369 262.063Z" fill="white"/>
<path d="M22.0703 221.692H264.706" stroke="#263238" stroke-miterlimit="10"/>
<path d="M22.0703 175.754H264.706" stroke="#263238" stroke-miterlimit="10"/>
<path d="M22.0703 129.814H264.706" stroke="#263238" stroke-miterlimit="10"/>
<path d="M22.0703 83.876H264.706" stroke="#263238" stroke-miterlimit="10"/>
<path d="M77.2383 57.792V221.801" stroke="#263238" stroke-miterlimit="10"/>
<path d="M223.078 57.792V221.801" stroke="#263238" stroke-miterlimit="10"/>
<path d="M82.6576 118.588L80.8516 120.49" stroke="#263238" stroke-miterlimit="10"/>
<path d="M113.411 86.1514L84.8281 116.294" stroke="#263238" stroke-miterlimit="10"/>
<path d="M115.196 91.0576L99.1406 107.558" stroke="#263238" stroke-miterlimit="10"/>
<path d="M229.322 118.588L227.516 120.49" stroke="#263238" stroke-miterlimit="10"/>
<path d="M260.073 86.1514L231.496 116.294" stroke="#263238" stroke-miterlimit="10"/>
<path d="M261.86 91.0576L245.805 107.558" stroke="#263238" stroke-miterlimit="10"/>
<path d="M18.4349 211.355L16.6289 213.258" stroke="#263238" stroke-miterlimit="10"/>
<path d="M49.1863 178.914L20.6094 209.062" stroke="#263238" stroke-miterlimit="10"/>
<path d="M50.9715 183.82L34.9102 200.327" stroke="#263238" stroke-miterlimit="10"/>
<path d="M42.0695 79.3428L40.2695 81.2451" stroke="#263238" stroke-miterlimit="10"/>
<path d="M72.8269 46.9014L44.25 77.0435" stroke="#263238" stroke-miterlimit="10"/>
<path d="M74.6061 51.8076L58.5508 68.3084" stroke="#263238" stroke-miterlimit="10"/>
<path d="M175.714 79.3428L173.914 81.2451" stroke="#263238" stroke-miterlimit="10"/>
<path d="M206.471 46.9014L177.895 77.0435" stroke="#263238" stroke-miterlimit="10"/>
<path d="M208.251 51.8076L192.195 68.3084" stroke="#263238" stroke-miterlimit="10"/>
<path d="M134.392 166.308L132.586 168.21" stroke="#263238" stroke-miterlimit="10"/>
<path d="M165.143 133.872L136.566 164.014" stroke="#263238" stroke-miterlimit="10"/>
<path d="M166.93 138.778L150.875 155.279" stroke="#263238" stroke-miterlimit="10"/>
<path d="M257.609 255.64C257.609 255.64 242.704 223.878 245.942 222.963C249.181 222.048 255.972 227.105 255.972 227.105C255.972 227.105 236.046 173.708 241.205 169.566C246.364 165.424 255.996 186.62 255.996 186.62C255.996 186.62 245.708 153.914 246.918 141.47C248.128 129.027 261.197 141.013 261.197 141.013C261.197 141.013 250.728 96.3626 260.451 94.0569C270.173 91.7513 269.848 145.149 269.848 145.149C269.848 145.149 273.038 106.94 276.933 117.529C280.828 128.118 272.641 163.558 272.641 163.558C272.641 163.558 277.981 151.59 280.949 162.637C283.917 173.683 275.049 218.334 275.049 218.334C275.049 218.334 282.586 210.971 283.29 220.176C283.995 229.381 267.687 257.921 267.687 257.921L258.458 258.86L257.609 255.64Z" fill="#92E3A9"/>
<path opacity="0.6" d="M257.609 255.64C257.609 255.64 242.704 223.878 245.942 222.963C249.181 222.048 255.972 227.105 255.972 227.105C255.972 227.105 236.046 173.708 241.205 169.566C246.364 165.424 255.996 186.62 255.996 186.62C255.996 186.62 245.708 153.914 246.918 141.47C248.128 129.027 261.197 141.013 261.197 141.013C261.197 141.013 250.728 96.3626 260.451 94.0569C270.173 91.7513 269.848 145.149 269.848 145.149C269.848 145.149 273.038 106.94 276.933 117.529C280.828 128.118 272.641 163.558 272.641 163.558C272.641 163.558 277.981 151.59 280.949 162.637C283.917 173.683 275.049 218.334 275.049 218.334C275.049 218.334 282.586 210.971 283.29 220.176C283.995 229.381 267.687 257.921 267.687 257.921L258.458 258.86L257.609 255.64Z" fill="white"/>
<path d="M260.792 257.054C260.792 257.054 248.367 234.961 250.667 230.813C252.966 226.665 259.871 236.339 259.871 236.339C259.871 236.339 244.219 197.209 246.525 193.531C248.83 189.853 256.193 205.962 256.193 205.962C256.193 205.962 253.43 152.107 258.029 153.944C262.628 155.78 263.074 181.533 263.074 181.533C263.074 181.533 260.317 120.316 264.458 122.158C268.6 124 268.143 192.122 268.143 192.122C268.143 192.122 276.426 165.881 277.805 177.849C279.183 189.817 267.222 222.042 267.222 222.042C267.222 222.042 278.726 196.722 280.128 210.098C281.531 223.475 270.9 248.277 270.9 248.277C270.9 248.277 275.042 238.151 275.042 243.672C275.042 249.192 271.821 256.103 271.821 256.103" stroke="#263238" stroke-linecap="round" stroke-linejoin="round"/>
<path d="M226.605 188.57L243.371 225.16L232.824 228.134L220.387 212.65L226.605 188.57Z" fill="#92E3A9"/>
<mask id="mask0_700_2759" style="mask-type:luminance" maskUnits="userSpaceOnUse" x="220" y="188" width="24" height="41">
<path d="M226.605 188.57L243.371 225.16L232.824 228.134L220.387 212.65L226.605 188.57Z" fill="white"/>
</mask>
<g mask="url(#mask0_700_2759)">
<g opacity="0.1">
<path d="M223.578 200.285L222.867 203.048L236.791 227.014L238.79 226.454L223.578 200.285Z" fill="black"/>
<path d="M232.902 228.115L234.913 227.549L221.958 206.558L221.266 209.249L232.902 228.115Z" fill="black"/>
<path d="M225.301 193.621L224.566 196.475L240.556 225.955L242.53 225.395L225.301 193.621Z" fill="black"/>
</g>
</g>
<path d="M226.605 188.57L243.371 225.16L232.824 228.134L220.387 212.65L226.605 188.57Z" stroke="#263238" stroke-linecap="round" stroke-linejoin="round"/>
<path d="M193.26 178.379L171.426 188.438L183.068 235.677L179.36 255.549H220.784L216.684 233.956L226.738 188.571L203.843 179.174L193.26 178.379Z" fill="#92E3A9"/>
<mask id="mask1_700_2759" style="mask-type:luminance" maskUnits="userSpaceOnUse" x="171" y="178" width="56" height="78">
<path d="M193.26 178.379L171.426 188.438L183.068 235.677L179.36 255.549H220.784L216.684 233.956L226.738 188.571L203.843 179.174L193.26 178.379Z" fill="white"/>
</mask>
<g mask="url(#mask1_700_2759)">
<g opacity="0.1">
<path d="M193.458 255.549L194.294 236.731C194.303 236.643 194.303 236.554 194.294 236.466L185.716 181.858L183.188 183.02L191.615 236.749L190.779 255.549H193.458Z" fill="black"/>
<path d="M198.478 232.228C198.478 232.228 198.478 232.18 198.478 232.156L191.675 179.107L189.129 180.311L195.811 232.487L197.533 255.579H200.218L198.478 232.228Z" fill="black"/>
<path d="M185.884 255.55L188.292 237.183C188.313 237.047 188.313 236.909 188.292 236.773L179.112 184.911L176.602 186.067L185.632 237.038L183.224 255.55H185.884Z" fill="black"/>
<path d="M225.786 188.18L223.264 187.145L214.059 234.745C214.032 234.9 214.032 235.059 214.059 235.214L217.37 255.55H220.085L216.72 235.022L216.798 234.63L216.666 233.956L218.683 224.872L225.786 188.18Z" fill="black"/>
<path d="M201.657 183.785L198.984 183.863L201.206 255.55H203.879L201.657 183.785Z" fill="black"/>
<path d="M211.041 234.672L219.932 185.778L217.404 184.736L208.374 234.425C208.344 234.578 208.344 234.736 208.374 234.889L211.902 255.55H214.617L211.041 234.672Z" fill="black"/>
<path d="M206.184 233.01L212.944 182.906L210.386 181.858L203.511 232.818C203.496 232.926 203.496 233.035 203.511 233.143L206.003 255.549H208.694L206.184 233.01Z" fill="black"/>
</g>
</g>
<path d="M193.26 178.379L171.426 188.438L183.068 235.677L179.36 255.549H220.784L216.684 233.956L226.738 188.571L203.843 179.174L193.26 178.379Z" stroke="#263238" stroke-linecap="round" stroke-linejoin="round"/>
<path d="M171.426 188.438L154.227 225.683L165.207 228.001L177.644 212.517L171.426 188.438Z" fill="#92E3A9"/>
<mask id="mask2_700_2759" style="mask-type:luminance" maskUnits="userSpaceOnUse" x="154" y="188" width="24" height="41">
<path d="M171.426 188.438L154.227 225.683L165.207 228.001L177.644 212.517L171.426 188.438Z" fill="white"/>
</mask>
<g mask="url(#mask2_700_2759)">
<g opacity="0.1">
<path d="M175.949 205.943L163.969 227.742L165.209 228.001L168.074 224.431L176.677 208.779L175.949 205.943Z" fill="black"/>
<path d="M174.868 201.777L174.085 198.743L160.715 227.055L162.732 227.483L174.868 201.777Z" fill="black"/>
<path d="M156.352 226.129L158.368 226.556L173.159 195.15L172.371 192.104L156.352 226.129Z" fill="black"/>
</g>
<path d="M170.973 194.638L177.041 210.922L170.949 201.597" stroke="#263238" stroke-miterlimit="10"/>
</g>
<path d="M171.426 188.438L154.227 225.683L165.207 228.001L177.644 212.517L171.426 188.438Z" stroke="#263238" stroke-linecap="round" stroke-linejoin="round"/>
<path d="M165.997 222.445L187.699 247.194L183.485 251.955L156.137 230.175C156.137 230.175 152.386 228.369 154.638 224.697" fill="#92E3A9"/>
<mask id="mask3_700_2759" style="mask-type:luminance" maskUnits="userSpaceOnUse" x="153" y="222" width="35" height="30">
<path d="M165.997 222.445L187.699 247.194L183.485 251.955L156.137 230.175C156.137 230.175 152.386 228.369 154.638 224.697" fill="white"/>
</mask>
<g mask="url(#mask3_700_2759)">
<g opacity="0.1">
<path d="M185.424 248.915L187.459 247.175L176.514 234.437L165.997 222.445L163.168 223.005L185.424 248.915Z" fill="black"/>
<path d="M181.088 250.059L182.9 251.504L184.604 250.005L161.198 223.396L158.164 223.992L181.088 250.059Z" fill="black"/>
</g>
</g>
<path d="M165.997 222.445L187.699 247.194L183.485 251.955L156.137 230.175C156.137 230.175 152.386 228.369 154.638 224.697" stroke="#263238" stroke-linecap="round" stroke-linejoin="round"/>
<path d="M184.215 246.26C184.817 245.923 195.286 243.418 195.431 244.7C195.575 245.983 198.693 247.397 200.114 247.397C201.535 247.397 202.956 246.26 203.239 247.963C203.521 249.667 201.962 249.811 200.686 249.95C199.41 250.088 195.003 248.674 195.003 248.674C195.003 248.674 190.885 252.081 189.182 252.93C187.478 253.779 184.366 253.532 183.222 252.647C182.078 251.762 180.531 248.246 184.215 246.26Z" fill="white" stroke="#263238" stroke-linecap="round" stroke-linejoin="round"/>
<path d="M193.875 244.556C193.875 244.556 197.848 243.419 198.691 243.846C199.534 244.273 199.973 252.792 199.973 252.792C199.973 252.792 199.546 253.641 198.691 252.792C197.836 251.943 195.001 245.568 195.001 245.568" fill="white"/>
<path d="M193.875 244.556C193.875 244.556 197.848 243.419 198.691 243.846C199.534 244.273 199.973 252.792 199.973 252.792C199.973 252.792 199.546 253.641 198.691 252.792C197.836 251.943 195.001 245.568 195.001 245.568" stroke="#263238" stroke-linecap="round" stroke-linejoin="round"/>
<path d="M191.882 244.839C191.882 244.839 196 243.846 196.855 245.405C197.71 246.964 199.835 253.923 198.131 254.212C196.427 254.501 195.862 252.22 195.862 252.22L193.165 247.253L191.316 246.97" fill="white"/>
<path d="M191.882 244.839C191.882 244.839 196 243.846 196.855 245.405C197.71 246.964 199.835 253.923 198.131 254.212C196.427 254.501 195.862 252.22 195.862 252.22L193.165 247.253L191.316 246.97" stroke="#263238" stroke-linecap="round" stroke-linejoin="round"/>
<path d="M190.469 246.115C190.469 246.115 192.455 245.266 193.449 245.977C194.442 246.687 198.987 253.923 198.132 254.212C197.277 254.501 195.291 254.351 195.008 253.785C194.725 253.219 191.035 248.367 191.035 248.367" fill="white"/>
<path d="M190.469 246.115C190.469 246.115 192.455 245.266 193.449 245.977C194.442 246.687 198.987 253.923 198.132 254.212C197.277 254.501 195.291 254.351 195.008 253.785C194.725 253.219 191.035 248.367 191.035 248.367" stroke="#263238" stroke-linecap="round" stroke-linejoin="round"/>
<path d="M189.031 248.529C189.031 248.529 190.873 246.826 191.867 247.398C192.86 247.97 196.978 253.357 196.129 253.923C195.28 254.489 194.708 253.923 193.859 252.792C193.25 252.028 192.532 251.359 191.728 250.805L190.025 251.371" fill="white"/>
<path d="M189.031 248.529C189.031 248.529 190.873 246.826 191.867 247.398C192.86 247.97 196.978 253.357 196.129 253.923C195.28 254.489 194.708 253.923 193.859 252.792C193.25 252.028 192.532 251.359 191.728 250.805L190.025 251.371" stroke="#263238" stroke-linecap="round" stroke-linejoin="round"/>
<path d="M230.978 223.239L223.754 247.819L228.979 251.467L240.784 232.492C240.784 232.492 245.637 227.014 242.59 223.932" fill="#92E3A9"/>
<mask id="mask4_700_2759" style="mask-type:luminance" maskUnits="userSpaceOnUse" x="223" y="223" width="21" height="29">
<path d="M230.978 223.239L223.754 247.819L228.979 251.467L240.784 232.492C240.784 232.492 245.637 227.014 242.59 223.932" fill="white"/>
</mask>
<g mask="url(#mask4_700_2759)">
<g opacity="0.1">
<path d="M229.143 251.172L229.233 251.022L239.233 223.733L236.439 223.564L226.777 249.944L227.861 250.697L229.143 251.172Z" fill="black"/>
<path d="M223.766 247.837L226.035 249.427L235.366 223.577L235.107 223.486L232.609 223.336L223.766 247.837Z" fill="black"/>
<path d="M243.415 225.371C243.255 224.827 242.961 224.332 242.56 223.932L241.127 223.848L233.578 244.069L240.754 232.522L243.415 225.371Z" fill="black"/>
</g>
</g>
<path d="M230.978 223.239L223.754 247.819L228.979 251.467L240.784 232.492C240.784 232.492 245.637 227.014 242.59 223.932" stroke="#263238" stroke-linecap="round" stroke-linejoin="round"/>
<path d="M227.389 246.26C226.787 245.923 216.312 243.418 216.174 244.7C216.035 245.983 212.905 247.397 211.49 247.397C210.075 247.397 208.649 246.26 208.366 247.963C208.083 249.667 209.642 249.811 210.918 249.95C212.194 250.088 216.601 248.674 216.601 248.674C216.601 248.674 220.719 252.081 222.422 252.93C224.126 253.779 227.238 253.532 228.382 252.647C229.526 251.762 231.079 248.246 227.389 246.26Z" fill="white" stroke="#263238" stroke-linecap="round" stroke-linejoin="round"/>
<path d="M217.733 244.556C217.733 244.556 213.76 243.419 212.917 243.846C212.074 244.273 211.641 252.792 211.641 252.792C211.641 252.792 212.068 253.641 212.917 252.792C213.766 251.943 216.613 245.568 216.613 245.568" fill="white"/>
<path d="M217.733 244.556C217.733 244.556 213.76 243.419 212.917 243.846C212.074 244.273 211.641 252.792 211.641 252.792C211.641 252.792 212.068 253.641 212.917 252.792C213.766 251.943 216.613 245.568 216.613 245.568" stroke="#263238" stroke-linecap="round" stroke-linejoin="round"/>
<path d="M219.731 244.839C219.731 244.839 215.619 243.846 214.764 245.405C213.909 246.964 211.754 253.923 213.488 254.212C215.222 254.501 215.758 252.22 215.758 252.22L218.455 247.253L220.303 246.97" fill="white"/>
<path d="M219.731 244.839C219.731 244.839 215.619 243.846 214.764 245.405C213.909 246.964 211.754 253.923 213.488 254.212C215.222 254.501 215.758 252.22 215.758 252.22L218.455 247.253L220.303 246.97" stroke="#263238" stroke-linecap="round" stroke-linejoin="round"/>
<path d="M221.141 246.115C221.141 246.115 219.154 245.266 218.161 245.977C217.168 246.687 212.623 253.923 213.478 254.212C214.332 254.501 216.313 254.351 216.602 253.785C216.891 253.219 220.575 248.367 220.575 248.367" fill="white"/>
<path d="M221.141 246.115C221.141 246.115 219.154 245.266 218.161 245.977C217.168 246.687 212.623 253.923 213.478 254.212C214.332 254.501 216.313 254.351 216.602 253.785C216.891 253.219 220.575 248.367 220.575 248.367" stroke="#263238" stroke-linecap="round" stroke-linejoin="round"/>
<path d="M222.561 248.529C222.561 248.529 220.719 246.819 219.731 247.421C218.744 248.023 214.62 253.381 215.475 253.947C216.33 254.513 216.896 253.947 217.745 252.815C218.354 252.052 219.072 251.383 219.876 250.829L221.58 251.395" fill="white"/>
<path d="M222.561 248.529C222.561 248.529 220.719 246.819 219.731 247.421C218.744 248.023 214.62 253.381 215.475 253.947C216.33 254.513 216.896 253.947 217.745 252.815C218.354 252.052 219.072 251.383 219.876 250.829L221.58 251.395" stroke="#263238" stroke-linecap="round" stroke-linejoin="round"/>
<path d="M194.847 175.862C194.847 175.862 191.409 176.921 189.952 179.04C188.496 181.159 190.217 197.564 190.217 197.564L201.204 191.478L212.714 198.756C212.714 198.756 211.655 181.954 210.728 179.57C209.8 177.186 203.979 174.411 201.992 174.676C200.006 174.941 194.847 175.862 194.847 175.862Z" fill="#92E3A9" stroke="#263238" stroke-linecap="round" stroke-linejoin="round"/>
<path d="M193.262 166.736V181.955L200.54 201.538L206.759 181.557V166.604L193.262 166.736Z" fill="white" stroke="#263238" stroke-linecap="round" stroke-linejoin="round"/>
<path d="M193.242 172.202C195.296 173.644 197.746 174.415 200.255 174.411C202.549 174.413 204.797 173.766 206.739 172.545V166.604L193.242 166.754V172.202Z" fill="#263238" stroke="#263238" stroke-linecap="round" stroke-linejoin="round"/>
<path d="M200.275 170.967C197.024 170.967 193.906 169.676 191.607 167.378C189.307 165.08 188.014 161.962 188.013 158.711L185.852 141.469C185.852 137.638 187.374 133.963 190.083 131.253C192.793 128.544 196.468 127.021 200.3 127.021C204.131 127.021 207.806 128.544 210.516 131.253C213.225 133.963 214.748 137.638 214.748 141.469L212.508 158.687C212.511 160.296 212.197 161.891 211.584 163.379C210.971 164.867 210.071 166.22 208.935 167.361C207.799 168.501 206.45 169.406 204.964 170.025C203.478 170.644 201.885 170.964 200.275 170.967Z" fill="white" stroke="#263238" stroke-linecap="round" stroke-linejoin="round"/>
<path d="M203.422 153.991C203.422 153.991 206.546 151.373 210.279 154.196" stroke="#263238" stroke-linecap="round" stroke-linejoin="round"/>
<path d="M197.777 153.691C196.849 153.1 195.744 152.851 194.652 152.986" stroke="#263238" stroke-linecap="round" stroke-linejoin="round"/>
<path d="M204.633 147.743C204.633 147.743 207.962 146.129 209.979 149.254" stroke="#263238" stroke-linecap="round" stroke-linejoin="round"/>
<path d="M199.266 160.95C199.266 160.95 200.68 162.058 201.89 160.95" stroke="#263238" stroke-linecap="round" stroke-linejoin="round"/>
<path d="M197.879 163.37C197.879 163.37 200.805 165.176 202.514 163.37" stroke="#263238" stroke-linecap="round" stroke-linejoin="round"/>
<path d="M206.441 139.664C206.441 139.664 194.353 150.825 190.981 158.958C187.61 167.091 190.632 175.586 192.492 178.03C194.353 180.474 195.502 180.817 195.502 180.817C195.502 180.817 189.109 183.261 184.925 176.868C180.741 170.475 181.783 163.263 183.065 158.266C184.347 153.269 183.992 138.617 186.9 133.735C189.807 128.852 193.991 125.246 200.969 126.059C207.946 126.872 211.66 130.478 213.869 135.011C216.079 139.544 215.031 147.219 215.73 150.591C216.428 153.962 219.45 164.075 220.148 170.119C220.847 176.163 212.605 180.468 211.305 181.052C210.421 181.423 209.476 181.628 208.518 181.654C208.518 181.654 211.305 167.705 211.889 159.681C212.473 151.656 212.509 146.888 212.509 146.888C212.509 146.888 207.025 140.013 206.441 139.664Z" fill="#263238"/>
<mask id="mask5_700_2759" style="mask-type:luminance" maskUnits="userSpaceOnUse" x="181" y="125" width="40" height="57">
<path d="M206.441 139.664C206.441 139.664 194.353 150.825 190.981 158.958C187.61 167.091 190.632 175.586 192.492 178.03C194.353 180.474 195.502 180.817 195.502 180.817C195.502 180.817 189.109 183.261 184.925 176.868C180.741 170.475 181.783 163.263 183.065 158.266C184.347 153.269 183.992 138.617 186.9 133.735C189.807 128.852 193.991 125.246 200.969 126.059C207.946 126.872 211.66 130.478 213.869 135.011C216.079 139.544 215.031 147.219 215.73 150.591C216.428 153.962 219.45 164.075 220.148 170.119C220.847 176.163 212.605 180.468 211.305 181.052C210.421 181.423 209.476 181.628 208.518 181.654C208.518 181.654 211.305 167.705 211.889 159.681C212.473 151.656 212.509 146.888 212.509 146.888C212.509 146.888 207.025 140.013 206.441 139.664Z" fill="white"/>
</mask>
<g mask="url(#mask5_700_2759)">
<path d="M205.027 131.838C205.027 131.838 203.6 135.769 193.336 147.032C183.072 158.296 180.284 169.041 183.403 179.54" stroke="#707070" stroke-miterlimit="10"/>
<path d="M202.492 127.913C202.492 127.913 196.845 132.591 189.85 139.598C185.55 143.936 181.879 148.854 178.941 154.208" stroke="#707070" stroke-miterlimit="10"/>
<path d="M207.555 132.783C207.555 132.783 211.841 140.573 214.177 145.251C216.512 149.928 219.246 176.217 211.064 185.585" stroke="#707070" stroke-miterlimit="10"/>
<path d="M204.637 126.354L206.443 139.664" stroke="#707070" stroke-miterlimit="10"/>
</g>
<path d="M206.441 139.664C206.441 139.664 194.353 150.825 190.981 158.958C187.61 167.091 190.632 175.586 192.492 178.03C194.353 180.474 195.502 180.817 195.502 180.817C195.502 180.817 189.109 183.261 184.925 176.868C180.741 170.475 181.783 163.263 183.065 158.266C184.347 153.269 183.992 138.617 186.9 133.735C189.807 128.852 193.991 125.246 200.969 126.059C207.946 126.872 211.66 130.478 213.869 135.011C216.079 139.544 215.031 147.219 215.73 150.591C216.428 153.962 219.45 164.075 220.148 170.119C220.847 176.163 212.605 180.468 211.305 181.052C210.421 181.423 209.476 181.628 208.518 181.654C208.518 181.654 211.305 167.705 211.889 159.681C212.473 151.656 212.509 146.888 212.509 146.888C212.509 146.888 207.025 140.013 206.441 139.664Z" stroke="#263238" stroke-linecap="round" stroke-linejoin="round"/>
<path d="M184.658 147.454H182.876C181.892 147.454 181.094 148.252 181.094 149.236V156.37C181.094 157.354 181.892 158.152 182.876 158.152H184.658C185.642 158.152 186.44 157.354 186.44 156.37V149.236C186.44 148.252 185.642 147.454 184.658 147.454Z" fill="white" stroke="#263238" stroke-linecap="round" stroke-linejoin="round"/>
<path d="M217.329 147.454H215.548C214.563 147.454 213.766 148.252 213.766 149.236V156.37C213.766 157.354 214.563 158.152 215.548 158.152H217.329C218.314 158.152 219.111 157.354 219.111 156.37V149.236C219.111 148.252 218.314 147.454 217.329 147.454Z" fill="white" stroke="#263238" stroke-linecap="round" stroke-linejoin="round"/>
<path d="M216.904 147.454V141.638C216.904 137.138 215.116 132.821 211.933 129.638C208.751 126.456 204.434 124.668 199.933 124.668C195.432 124.668 191.115 126.456 187.931 129.638C184.748 132.821 182.959 137.137 182.957 141.638V147.454" stroke="#263238" stroke-width="2" stroke-linejoin="round"/>
<path d="M216.441 158.097C216.441 158.097 215.688 163.918 208.566 166.29" stroke="#263238" stroke-linecap="round" stroke-linejoin="round"/>
<path d="M208.293 166.037C208.594 166.91 207.745 167.993 206.391 168.445C205.036 168.896 203.706 168.589 203.381 167.717C203.056 166.844 203.928 165.76 205.277 165.309C206.625 164.857 208.01 165.164 208.293 166.037Z" stroke="#263238" stroke-linecap="round" stroke-linejoin="round"/>
<path d="M86.445 173.545L61.5703 185.398L68.7462 255.693H118.333L125.346 184.23L101.971 173.376L86.445 173.545Z" fill="#92E3A9" stroke="#263238" stroke-linecap="round" stroke-linejoin="round"/>
<path d="M96.4131 194.993C96.8786 194.993 97.2559 194.616 97.2559 194.15C97.2559 193.685 96.8786 193.308 96.4131 193.308C95.9477 193.308 95.5703 193.685 95.5703 194.15C95.5703 194.616 95.9477 194.993 96.4131 194.993Z" fill="#263238"/>
<path d="M97.2559 199.207C97.2559 199.374 97.2065 199.537 97.1139 199.675C97.0213 199.814 96.8896 199.922 96.7356 199.986C96.5816 200.049 96.4122 200.066 96.2487 200.034C96.0852 200.001 95.935 199.921 95.8172 199.803C95.6993 199.685 95.619 199.535 95.5865 199.371C95.554 199.208 95.5707 199.039 95.6345 198.885C95.6983 198.731 95.8063 198.599 95.9449 198.506C96.0835 198.414 96.2464 198.364 96.4131 198.364C96.6366 198.364 96.851 198.453 97.0091 198.611C97.1671 198.769 97.2559 198.984 97.2559 199.207Z" fill="#263238"/>
<path d="M105.041 177.132L98.2444 184.712L95.3428 192.074L92.2184 184.603L85.6445 177.132V163.864H105.041V177.132Z" fill="white" stroke="#263238" stroke-linecap="round" stroke-linejoin="round"/>
<path d="M85.6445 169.764C86.924 171.319 88.5325 172.571 90.3543 173.43C92.176 174.289 94.1655 174.733 96.1795 174.73C99.4301 174.734 102.574 173.572 105.041 171.455V163.864H85.6445V169.764Z" fill="#263238" stroke="#263238" stroke-linecap="round" stroke-linejoin="round"/>
<path d="M97.5454 126.732H94.8124C88.0232 126.732 82.5195 132.236 82.5195 139.025V158.705C82.5195 165.494 88.0232 170.997 94.8124 170.997H97.5454C104.335 170.997 109.838 165.494 109.838 158.705V139.025C109.838 132.236 104.335 126.732 97.5454 126.732Z" fill="white" stroke="#263238" stroke-linecap="round" stroke-linejoin="round"/>
<path d="M98.8004 146.357L98.3971 156.032C98.3892 156.451 98.2527 156.858 98.0062 157.197C97.7596 157.536 97.4148 157.791 97.0185 157.928C96.2901 158.151 95.4593 157.928 95.0078 156.284" stroke="#263238" stroke-linecap="round" stroke-linejoin="round"/>
<path d="M90.9023 159.849H101.738C101.738 159.849 99.842 163.978 96.1638 163.978C92.4856 163.978 90.9023 159.849 90.9023 159.849Z" fill="#263238" stroke="#263238" stroke-linecap="round" stroke-linejoin="round"/>
<path d="M91.6729 161.299H100.799C101.146 160.846 101.449 160.36 101.702 159.849H90.9023C91.108 160.358 91.3663 160.844 91.6729 161.299Z" fill="white" stroke="#263238" stroke-linecap="round" stroke-linejoin="round"/>
<path d="M90.7748 150.711C91.207 150.711 91.5574 149.886 91.5574 148.868C91.5574 147.851 91.207 147.026 90.7748 147.026C90.3426 147.026 89.9922 147.851 89.9922 148.868C89.9922 149.886 90.3426 150.711 90.7748 150.711Z" fill="#263238"/>
<path d="M102.478 150.711C102.91 150.711 103.261 149.886 103.261 148.868C103.261 147.851 102.91 147.026 102.478 147.026C102.046 147.026 101.695 147.851 101.695 148.868C101.695 149.886 102.046 150.711 102.478 150.711Z" fill="#263238"/>
<path d="M100.027 144.016C100.027 144.016 102.7 142.343 105.716 145.022" stroke="#263238" stroke-linecap="round" stroke-linejoin="round"/>
<path d="M96.1789 126.732C92.5562 126.732 89.0819 128.172 86.5203 130.733C83.9586 133.295 82.5195 136.769 82.5195 140.392V152.835H82.6339H83.7476V147.706C83.7476 147.706 89.3221 147.706 95.902 144.142C102.482 140.578 104.143 134.763 104.143 134.763C104.143 134.763 105.594 141.788 107.153 143.125L108.719 144.461V152.937H109.832V140.392C109.832 136.77 108.394 133.297 105.834 130.735C103.273 128.174 99.8006 126.734 96.1789 126.732Z" fill="#263238" stroke="#263238" stroke-linecap="round" stroke-linejoin="round"/>
<path d="M79.964 146.249H82.5225V156.393H79.964C79.3126 156.393 78.6878 156.134 78.2272 155.673C77.7666 155.213 77.5078 154.588 77.5078 153.937V148.693C77.511 148.044 77.7712 147.422 78.2315 146.964C78.6917 146.506 79.3146 146.249 79.964 146.249Z" fill="white" stroke="#263238" stroke-linecap="round" stroke-linejoin="round"/>
<path d="M112.235 156.394H109.677V146.25H112.235C112.558 146.25 112.877 146.313 113.175 146.437C113.473 146.56 113.744 146.741 113.972 146.969C114.2 147.197 114.381 147.468 114.504 147.766C114.628 148.064 114.691 148.383 114.691 148.706V153.949C114.688 154.599 114.428 155.22 113.968 155.678C113.507 156.136 112.885 156.394 112.235 156.394Z" fill="white" stroke="#263238" stroke-linecap="round" stroke-linejoin="round"/>
<path d="M80.293 146.249V139.778C80.293 135.579 81.961 131.552 84.9302 128.583C87.8994 125.613 91.9265 123.945 96.1256 123.945C100.324 123.947 104.35 125.615 107.319 128.584C110.288 131.553 111.957 135.579 111.958 139.778V146.249" stroke="#263238" stroke-width="2" stroke-linejoin="round"/>
<path d="M111.971 156.394C111.971 156.394 111.188 162.414 103.832 164.87" stroke="#263238" stroke-linecap="round" stroke-linejoin="round"/>
<path d="M103.542 164.605C103.855 165.508 102.976 166.627 101.579 167.115C100.183 167.603 98.7982 167.259 98.4852 166.356C98.1721 165.453 99.051 164.334 100.448 163.846C101.844 163.358 103.247 163.702 103.542 164.605Z" stroke="#263238" stroke-linecap="round" stroke-linejoin="round"/>
<path d="M61.5711 185.397L40.5312 229.915L49.2121 237.489L64.9062 217.791L61.5711 185.397Z" fill="#92E3A9" stroke="#263238" stroke-linecap="round" stroke-linejoin="round"/>
<path d="M59.8439 199.045L64.9549 216.286L58.8867 206.383" stroke="#263238" stroke-miterlimit="10"/>
<path d="M125.349 184.229L145.383 228.976L133.03 234.322L122.008 216.623L125.349 184.229Z" fill="#92E3A9" stroke="#263238" stroke-linecap="round" stroke-linejoin="round"/>
<path d="M51.8851 228.807L69.915 245.669L64.9064 251.515L38.6953 235.255L41.7053 227.242" fill="#92E3A9"/>
<path d="M51.8851 228.807L69.915 245.669L64.9064 251.515L38.6953 235.255L41.7053 227.242" stroke="#263238" stroke-linecap="round" stroke-linejoin="round"/>
<path d="M66.9102 244.67C67.6447 244.273 79.9315 241.329 80.1 242.834C80.2686 244.339 83.9408 246.007 85.6084 246.007C87.2759 246.007 88.9494 244.67 89.2805 246.675C89.6116 248.68 87.7816 248.842 86.2705 249.011C84.7595 249.179 79.5944 247.506 79.5944 247.506C79.5944 247.506 74.7784 251.515 72.7496 252.52C70.7209 253.526 67.0728 253.183 65.7363 252.183C64.3999 251.184 62.5698 247.006 66.9102 244.67Z" fill="white" stroke="#263238" stroke-linecap="round" stroke-linejoin="round"/>
<path d="M78.2578 242.666C78.2578 242.666 82.9353 241.329 83.9347 241.835C84.934 242.341 85.4397 252.352 85.4397 252.352C85.4397 252.352 84.934 253.351 83.9347 252.352C82.9353 251.353 79.6003 243.81 79.6003 243.81" fill="white"/>
<path d="M78.2578 242.666C78.2578 242.666 82.9353 241.329 83.9347 241.835C84.934 242.341 85.4397 252.352 85.4397 252.352C85.4397 252.352 84.934 253.351 83.9347 252.352C82.9353 251.353 79.6003 243.81 79.6003 243.81" stroke="#263238" stroke-linecap="round" stroke-linejoin="round"/>
<path d="M75.9299 243.003C75.9299 243.003 80.7459 241.835 81.7693 243.671C82.7927 245.507 85.279 253.688 83.2743 254.019C81.2697 254.351 80.6015 251.684 80.6015 251.684L77.4289 245.838L75.2617 245.507" fill="white"/>
<path d="M75.9299 243.003C75.9299 243.003 80.7459 241.835 81.7693 243.671C82.7927 245.507 85.279 253.688 83.2743 254.019C81.2697 254.351 80.6015 251.684 80.6015 251.684L77.4289 245.838L75.2617 245.507" stroke="#263238" stroke-linecap="round" stroke-linejoin="round"/>
<path d="M74.2539 244.501C74.2539 244.501 76.5957 243.502 77.7636 244.339C78.9314 245.176 84.2772 253.688 83.2719 254.043C82.2665 254.398 79.9308 254.212 79.5997 253.543C79.2686 252.875 74.9221 247.198 74.9221 247.198" fill="white"/>
<path d="M74.2539 244.501C74.2539 244.501 76.5957 243.502 77.7636 244.339C78.9314 245.176 84.2772 253.688 83.2719 254.043C82.2665 254.398 79.9308 254.212 79.5997 253.543C79.2686 252.875 74.9221 247.198 74.9221 247.198" stroke="#263238" stroke-linecap="round" stroke-linejoin="round"/>
<path d="M72.5898 247.343C72.5898 247.343 74.7631 245.338 75.9309 246.006C77.0988 246.675 81.9509 253.02 80.9396 253.688C79.9282 254.356 79.266 253.688 78.2667 252.352C77.5515 251.452 76.7077 250.663 75.7624 250.01L73.7577 250.678" fill="white"/>
<path d="M72.5898 247.343C72.5898 247.343 74.7631 245.338 75.9309 246.006C77.0988 246.675 81.9509 253.02 80.9396 253.688C79.9282 254.356 79.266 253.688 78.2667 252.352C77.5515 251.452 76.7077 250.663 75.7624 250.01L73.7577 250.678" stroke="#263238" stroke-linecap="round" stroke-linejoin="round"/>
<path d="M130.001 224.545L119.43 246.856L126.232 250.45L146.225 229.265L140.488 222.914" fill="#92E3A9"/>
<path d="M130.001 224.545L119.43 246.856L126.232 250.45L146.225 229.265L140.488 222.914" stroke="#263238" stroke-linecap="round" stroke-linejoin="round"/>
<path d="M124.721 244.67C123.987 244.273 111.694 241.329 111.532 242.834C111.369 244.339 107.691 246.007 106.017 246.007C104.344 246.007 102.682 244.67 102.345 246.675C102.008 248.68 103.85 248.842 105.355 249.011C106.86 249.179 112.031 247.506 112.031 247.506C112.031 247.506 116.847 251.515 118.876 252.52C120.905 253.526 124.553 253.183 125.889 252.183C127.226 251.184 129.062 247.006 124.721 244.67Z" fill="white" stroke="#263238" stroke-linecap="round" stroke-linejoin="round"/>
<path d="M113.365 242.666C113.365 242.666 108.688 241.329 107.689 241.835C106.689 242.341 106.184 252.352 106.184 252.352C106.184 252.352 106.683 253.351 107.689 252.352C108.694 251.353 112.029 243.81 112.029 243.81" fill="white"/>
<path d="M113.365 242.666C113.365 242.666 108.688 241.329 107.689 241.835C106.689 242.341 106.184 252.352 106.184 252.352C106.184 252.352 106.683 253.351 107.689 252.352C108.694 251.353 112.029 243.81 112.029 243.81" stroke="#263238" stroke-linecap="round" stroke-linejoin="round"/>
<path d="M115.703 243.003C115.703 243.003 110.887 241.835 109.858 243.671C108.828 245.507 106.354 253.688 108.359 254.043C110.363 254.399 111.025 251.708 111.025 251.708L114.198 245.862L116.371 245.531" fill="white"/>
<path d="M115.703 243.003C115.703 243.003 110.887 241.835 109.858 243.671C108.828 245.507 106.354 253.688 108.359 254.043C110.363 254.399 111.025 251.708 111.025 251.708L114.198 245.862L116.371 245.531" stroke="#263238" stroke-linecap="round" stroke-linejoin="round"/>
<path d="M117.389 244.501C117.389 244.501 115.053 243.502 113.886 244.339C112.718 245.176 107.354 253.688 108.359 254.043C109.365 254.398 111.694 254.212 112.031 253.543C112.368 252.875 116.703 247.198 116.703 247.198" fill="white"/>
<path d="M117.389 244.501C117.389 244.501 115.053 243.502 113.886 244.339C112.718 245.176 107.354 253.688 108.359 254.043C109.365 254.398 111.694 254.212 112.031 253.543C112.368 252.875 116.703 247.198 116.703 247.198" stroke="#263238" stroke-linecap="round" stroke-linejoin="round"/>
<path d="M119.046 247.343C119.046 247.343 116.873 245.338 115.705 246.006C114.537 246.675 109.685 253.02 110.696 253.688C111.708 254.356 112.364 253.688 113.369 252.352C114.084 251.452 114.928 250.663 115.873 250.01L117.878 250.678" fill="white"/>
<path d="M119.046 247.343C119.046 247.343 116.873 245.338 115.705 246.006C114.537 246.675 109.685 253.02 110.696 253.688C111.708 254.356 112.364 253.688 113.369 252.352C114.084 251.452 114.928 250.663 115.873 250.01L117.878 250.678" stroke="#263238" stroke-linecap="round" stroke-linejoin="round"/>
<path d="M156.315 101.263H117.185C115.37 101.263 113.63 101.983 112.347 103.265C111.063 104.548 110.342 106.287 110.34 108.101V119.539C110.335 120.44 110.508 121.333 110.849 122.167C111.191 123.001 111.693 123.759 112.328 124.398C112.962 125.038 113.717 125.545 114.549 125.892C115.38 126.239 116.272 126.419 117.173 126.42H121.989L115.421 135.011L130.188 126.42H156.315C157.214 126.418 158.103 126.239 158.933 125.892C159.762 125.546 160.515 125.04 161.149 124.403C161.783 123.765 162.285 123.01 162.627 122.178C162.969 121.347 163.144 120.456 163.141 119.557V108.119C163.145 106.305 162.427 104.564 161.147 103.278C159.867 101.992 158.129 101.267 156.315 101.263Z" fill="white" stroke="#263238" stroke-miterlimit="10"/>
<path d="M131.374 114.627C131.375 114.943 131.283 115.252 131.108 115.515C130.934 115.778 130.685 115.984 130.394 116.106C130.102 116.227 129.781 116.26 129.471 116.199C129.162 116.138 128.877 115.986 128.653 115.764C128.429 115.541 128.277 115.256 128.215 114.947C128.153 114.637 128.184 114.316 128.304 114.024C128.425 113.732 128.629 113.483 128.892 113.307C129.154 113.132 129.463 113.038 129.779 113.038C130.201 113.038 130.606 113.205 130.905 113.503C131.204 113.801 131.373 114.205 131.374 114.627Z" fill="#263238"/>
<path d="M138.331 114.627C138.332 114.943 138.24 115.253 138.065 115.516C137.89 115.779 137.641 115.985 137.349 116.106C137.057 116.228 136.736 116.26 136.426 116.198C136.116 116.137 135.831 115.985 135.608 115.761C135.384 115.538 135.232 115.253 135.171 114.943C135.11 114.633 135.142 114.312 135.263 114.02C135.385 113.728 135.59 113.479 135.853 113.304C136.117 113.13 136.426 113.037 136.742 113.038C137.163 113.038 137.568 113.206 137.866 113.504C138.164 113.802 138.331 114.206 138.331 114.627Z" fill="#263238"/>
<path d="M145.292 114.627C145.292 114.942 145.199 115.249 145.024 115.51C144.849 115.772 144.601 115.975 144.311 116.096C144.02 116.216 143.701 116.247 143.393 116.186C143.084 116.125 142.801 115.973 142.579 115.751C142.357 115.529 142.205 115.246 142.144 114.937C142.082 114.629 142.114 114.31 142.234 114.019C142.355 113.729 142.558 113.481 142.82 113.306C143.081 113.131 143.388 113.038 143.703 113.038C144.124 113.038 144.528 113.206 144.826 113.504C145.124 113.802 145.292 114.206 145.292 114.627Z" fill="#263238"/>
<path d="M236.254 253.882H163.328V256.826H236.254V253.882Z" fill="white" stroke="#263238" stroke-linecap="round" stroke-linejoin="round"/>
<path d="M247.456 253.882H183.891V256.826H247.456V253.882Z" fill="white" stroke="#263238" stroke-linecap="round" stroke-linejoin="round"/>
<path d="M248.693 248.65H187.879L194.435 202.218H255.249L248.693 248.65Z" fill="white" stroke="#263238" stroke-linecap="round" stroke-linejoin="round"/>
<path d="M251.209 248.65H190.395L196.95 202.218H257.764L251.209 248.65Z" fill="#263238" stroke="#263238" stroke-linecap="round" stroke-linejoin="round"/>
<path d="M232.571 227.068L238.675 256.819H222.981L216.883 227.068H232.571ZM221.928 235.9C221.957 236.021 222.027 236.128 222.125 236.204C222.224 236.281 222.345 236.322 222.469 236.321L231.361 236.237C231.444 236.236 231.526 236.216 231.601 236.178C231.675 236.141 231.74 236.087 231.791 236.021C231.842 235.955 231.878 235.879 231.895 235.797C231.912 235.716 231.911 235.631 231.891 235.551L231.09 232.215C231.06 232.094 230.991 231.986 230.893 231.908C230.795 231.831 230.673 231.789 230.548 231.788L221.657 231.872C221.573 231.874 221.491 231.894 221.416 231.931C221.342 231.968 221.276 232.022 221.225 232.088C221.174 232.153 221.138 232.23 221.12 232.311C221.102 232.393 221.102 232.477 221.121 232.559L221.928 235.9Z" fill="white" stroke="#263238" stroke-linecap="round" stroke-linejoin="round"/>
<path d="M128.387 253.882H55.4609V256.826H128.387V253.882Z" fill="white" stroke="#263238" stroke-linecap="round" stroke-linejoin="round"/>
<path d="M139.589 253.882H76.0234V256.826H139.589V253.882Z" fill="white" stroke="#263238" stroke-linecap="round" stroke-linejoin="round"/>
<path d="M140.826 248.65H80.0117L86.5675 202.218H147.382L140.826 248.65Z" fill="white" stroke="#263238" stroke-linecap="round" stroke-linejoin="round"/>
<path d="M143.341 248.65H82.5273L89.0831 202.218H149.897L143.341 248.65Z" fill="#263238" stroke="#263238" stroke-linecap="round" stroke-linejoin="round"/>
<path d="M124.71 227.068L130.808 256.819H115.114L109.016 227.068H124.71ZM114.06 235.9C114.091 236.02 114.161 236.127 114.259 236.203C114.357 236.279 114.478 236.321 114.602 236.321L123.494 236.237C123.577 236.235 123.659 236.215 123.734 236.178C123.809 236.141 123.874 236.087 123.925 236.022C123.977 235.956 124.013 235.879 124.031 235.798C124.049 235.716 124.048 235.632 124.03 235.551L123.223 232.215C123.194 232.093 123.125 231.985 123.027 231.907C122.928 231.829 122.806 231.787 122.681 231.788L113.789 231.872C113.706 231.874 113.624 231.894 113.55 231.931C113.475 231.968 113.41 232.022 113.359 232.088C113.308 232.154 113.273 232.23 113.256 232.312C113.238 232.393 113.24 232.478 113.26 232.559L114.06 235.9Z" fill="white" stroke="#263238" stroke-linecap="round" stroke-linejoin="round"/>
<path d="M277.371 256.819H17.957V259.733H277.371V256.819Z" fill="#263238" stroke="#263238" stroke-linecap="round" stroke-linejoin="round"/>
</svg>
