<svg width="33" height="35" viewBox="0 0 33 35" fill="none" xmlns="http://www.w3.org/2000/svg">
<path opacity="0.8" d="M17.9088 34.4505C25.9642 34.4505 32.4944 27.9203 32.4944 19.8649C32.4944 11.8095 25.9642 5.2793 17.9088 5.2793C9.85342 5.2793 3.32324 11.8095 3.32324 19.8649C3.32324 27.9203 9.85342 34.4505 17.9088 34.4505Z" fill="url(#paint0_radial_1171_3126)"/>
<path d="M8.43107 24.2848L2.97989 18.8336C-0.0649114 15.7888 -0.0649114 10.7796 2.97989 7.73478L8.43107 2.2836C11.4759 -0.761201 16.4851 -0.761201 19.5299 2.2836L24.981 7.73478C28.0258 10.7796 28.0258 15.7888 24.981 18.8336L19.5299 24.2848C16.4851 27.3296 11.4759 27.3296 8.43107 24.2848Z" fill="url(#paint1_linear_1171_3126)"/>
<path d="M17.4684 9.06348C17.0264 9.06348 16.6826 9.40724 16.6826 9.84923C16.6826 10.2912 17.0264 10.635 17.4684 10.635C17.9104 10.635 18.2541 10.2912 18.2541 9.84923C18.2541 9.40724 17.9104 9.06348 17.4684 9.06348Z" fill="white"/>
<path d="M14.0303 10.0449C12.2623 10.0449 10.7891 11.5182 10.7891 13.2862C10.7891 15.0541 12.2623 16.5274 14.0303 16.5274C15.7982 16.5274 17.2715 15.0541 17.2715 13.2862C17.2715 11.5182 15.8474 10.0449 14.0303 10.0449ZM14.0303 15.3488C12.9008 15.3488 11.9677 14.4157 11.9677 13.2862C11.9677 12.1566 12.9008 11.2236 14.0303 11.2236C15.1598 11.2236 16.0929 12.1566 16.0929 13.2862C16.0929 14.4157 15.2089 15.3488 14.0303 15.3488Z" fill="white"/>
<path d="M16.633 19.8668H11.3783C9.21745 19.8668 7.40039 18.0988 7.40039 15.8889V10.6341C7.40039 8.47331 9.16834 6.65625 11.3783 6.65625H16.633C18.7938 6.65625 20.6109 8.4242 20.6109 10.6341V15.8889C20.5618 18.0988 18.7938 19.8668 16.633 19.8668ZM11.3783 7.9331C9.90499 7.9331 8.67725 9.16084 8.67725 10.6341V15.8889C8.67725 17.3622 9.90499 18.5899 11.3783 18.5899H16.633C18.1063 18.5899 19.3341 17.3622 19.3341 15.8889V10.6341C19.3341 9.16084 18.1063 7.9331 16.633 7.9331H11.3783Z" fill="white"/>
<defs>
<radialGradient id="paint0_radial_1171_3126" cx="0" cy="0" r="1" gradientUnits="userSpaceOnUse" gradientTransform="translate(17.9007 19.8673) scale(14.5779)">
<stop stop-color="#000057"/>
<stop offset="0.2482" stop-color="#4C4C89" stop-opacity="0.7518"/>
<stop offset="0.5193" stop-color="#9898BB" stop-opacity="0.4807"/>
<stop offset="0.744" stop-color="#D0D0E0" stop-opacity="0.256"/>
<stop offset="0.9103" stop-color="#F2F2F6" stop-opacity="0.0897143"/>
<stop offset="1" stop-color="white" stop-opacity="0"/>
</radialGradient>
<linearGradient id="paint1_linear_1171_3126" x1="13.9849" y1="-0.0146635" x2="13.9849" y2="26.5786" gradientUnits="userSpaceOnUse">
<stop offset="0.0011048" stop-color="#FFE185"/>
<stop offset="0.2094" stop-color="#FFBB36"/>
<stop offset="0.3765" stop-color="#FF5176"/>
<stop offset="0.5238" stop-color="#F63395"/>
<stop offset="0.7394" stop-color="#A436D2"/>
<stop offset="1" stop-color="#5F4EED"/>
</linearGradient>
</defs>
</svg>
