<svg width="15" height="15" viewBox="0 0 17 17" fill="none" xmlns="http://www.w3.org/2000/svg">
<path d="M13.7999 7.0392V14.3992C13.7999 14.6093 13.7585 14.8173 13.6781 15.0115C13.5977 15.2056 13.4799 15.382 13.3313 15.5305C13.1827 15.6791 13.0064 15.797 12.8122 15.8774C12.6181 15.9578 12.4101 15.9992 12.1999 15.9992H2.59999C2.17565 15.9992 1.76868 15.8306 1.46863 15.5305C1.16857 15.2305 1 14.8235 1 14.3992V4.79921C1 4.37487 1.16857 3.9679 1.46863 3.66785C1.76868 3.36779 2.17565 3.19922 2.59999 3.19922H9.29916" stroke="#3830D9" stroke-width="1.5" stroke-linecap="round" stroke-linejoin="round"/>
<path d="M16.8374 0.210011C16.7789 0.145787 16.708 0.0940815 16.6291 0.0580176C16.5501 0.0219536 16.4646 0.00228045 16.3778 0.000186753C16.2909 -0.00190694 16.2046 0.0136223 16.124 0.0458362C16.0433 0.0780502 15.97 0.12628 15.9086 0.187611L15.4138 0.680008C15.3538 0.740013 15.3201 0.821374 15.3201 0.906207C15.3201 0.991039 15.3538 1.0724 15.4138 1.13241L15.8674 1.5852C15.8971 1.61508 15.9324 1.63878 15.9714 1.65495C16.0103 1.67113 16.052 1.67946 16.0942 1.67946C16.1363 1.67946 16.178 1.67113 16.217 1.65495C16.2559 1.63878 16.2912 1.61508 16.321 1.5852L16.8034 1.10521C17.0474 0.861607 17.0702 0.464809 16.8374 0.210011ZM14.4134 1.68L7.19261 8.88797C7.14883 8.93157 7.11701 8.9857 7.10021 9.04516L6.76621 10.04C6.75821 10.067 6.75765 10.0956 6.76457 10.1229C6.7715 10.1502 6.78567 10.1751 6.80557 10.195C6.82548 10.2149 6.85039 10.2291 6.87768 10.236C6.90497 10.2429 6.93362 10.2424 6.96061 10.2344L7.95461 9.90036C8.01407 9.88356 8.06821 9.85174 8.11181 9.80796L15.3198 2.5864C15.3865 2.519 15.4239 2.42801 15.4239 2.3332C15.4239 2.23839 15.3865 2.1474 15.3198 2.08L14.9218 1.68C14.8543 1.61271 14.7629 1.57492 14.6676 1.57492C14.5723 1.57492 14.4809 1.61271 14.4134 1.68Z" fill="#3830D9"/>
</svg>
